if (_typeface_js && _typeface_js.loadFace) _typeface_js.loadFace({"glyphs":{"0":{"ha":1011,"x_min":12,"x_max":991,"o":"m 352 738 q 392 752 352 738 q 587 760 431 766 q 826 697 743 753 q 950 543 909 641 q 970 352 991 444 q 901 197 949 260 q 790 87 854 134 q 648 13 727 41 q 463 -10 569 -16 q 278 19 357 -4 q 120 118 199 41 q 27 309 41 194 q 74 526 12 423 q 205 668 136 628 q 352 738 273 709 m 571 679 q 535 681 571 679 q 424 668 498 684 q 255 584 350 652 q 133 435 159 516 q 130 289 106 354 q 198 175 153 223 q 303 97 242 127 q 493 70 365 67 q 722 153 622 73 q 854 327 822 233 q 857 499 886 421 q 736 626 827 578 q 571 679 645 673 z "},"1":{"ha":374,"x_min":62,"x_max":293,"o":"m 278 -31 q 181 -25 233 -58 l 181 652 l 114 644 q 101 726 62 684 l 256 755 q 271 683 293 743 l 278 -31 z "},"2":{"ha":934,"x_min":15,"x_max":924,"o":"m 332 730 q 404 748 332 730 q 569 754 475 766 q 741 712 664 742 q 860 612 818 683 q 846 473 901 541 q 659 355 791 406 q 442 276 526 304 q 289 211 357 249 q 142 61 220 174 l 863 79 q 867 -14 924 36 l 135 -23 q 15 9 17 -60 q 266 302 111 239 q 523 391 420 366 q 720 483 625 417 q 746 604 814 549 q 581 670 677 660 q 423 666 484 680 q 302 622 363 653 q 160 504 241 591 q 87 564 98 526 q 332 730 190 694 z "},"3":{"ha":935,"x_min":15,"x_max":932,"o":"m 378 760 q 422 768 378 760 q 554 777 466 777 q 712 760 643 777 q 826 677 781 742 q 842 555 871 612 q 701 453 813 498 q 851 368 795 413 q 920 241 907 322 q 869 96 932 160 q 670 -3 805 33 q 349 -30 536 -39 q 33 66 161 -20 q 68 158 15 128 q 258 83 166 103 q 436 57 351 63 q 624 79 522 50 q 779 162 727 109 q 792 279 830 216 q 610 409 753 342 q 252 359 474 385 q 239 439 201 392 q 625 504 494 461 q 756 595 755 547 q 701 671 757 644 q 554 696 645 699 q 366 671 463 693 q 158 581 269 650 q 137 671 68 613 q 378 760 290 742 z "},"4":{"ha":822,"x_min":7,"x_max":832,"o":"m 645 752 q 745 745 702 800 l 741 206 l 793 210 q 786 106 832 159 l 736 101 l 735 -61 q 644 -68 694 -113 l 644 105 l 56 77 q 35 180 7 117 l 581 687 q 643 624 631 680 l 645 752 m 144 161 l 644 188 l 645 610 l 144 161 z "},"5":{"ha":895,"x_min":21,"x_max":891,"o":"m 779 770 q 772 677 837 722 l 218 660 l 180 448 q 526 519 322 530 q 791 460 730 509 q 871 322 852 412 q 854 168 891 232 q 733 54 817 104 q 453 -18 648 3 q 36 64 258 -39 q 73 155 21 127 q 375 66 262 68 q 585 93 489 64 q 744 175 682 122 q 778 305 806 229 q 666 412 749 381 q 478 437 582 443 q 278 408 374 431 q 159 321 182 384 l 64 343 l 138 753 l 779 770 z "},"6":{"ha":979,"x_min":4,"x_max":965,"o":"m 387 716 q 452 738 387 716 q 633 756 517 760 q 855 714 749 752 q 822 636 886 646 q 535 664 656 683 q 322 594 415 644 q 174 475 229 544 q 113 348 120 406 q 138 231 105 289 q 465 318 345 300 q 694 318 585 337 q 867 271 804 300 q 948 202 930 242 q 900 98 965 162 q 696 2 836 35 q 409 -18 557 -30 q 164 67 260 -7 q 36 237 68 142 q 42 425 4 332 q 169 596 81 518 q 387 716 257 673 m 527 251 q 487 246 527 251 q 359 224 447 241 q 189 161 271 206 q 465 51 330 52 q 691 73 600 50 q 827 135 783 96 q 828 203 871 174 q 695 247 785 233 q 527 251 606 260 z "},"7":{"ha":821,"x_min":-9,"x_max":827,"o":"m 754 768 q 792 671 827 756 l 181 -155 q 102 -113 111 -178 l 687 667 l 40 627 q 39 723 -9 686 l 754 768 z "},"8":{"ha":1042,"x_min":-7,"x_max":1064,"o":"m 393 738 q 436 750 393 738 q 574 763 479 762 q 734 744 670 763 q 832 690 799 725 q 864 606 865 655 q 755 492 862 557 q 985 377 905 473 q 999 175 1064 282 q 813 19 934 67 q 585 -44 692 -30 q 368 -55 478 -58 q 151 -2 258 -52 q 18 135 43 47 q 72 311 -7 222 q 288 456 152 401 q 191 553 197 492 q 246 664 186 614 q 393 738 307 713 m 563 690 q 519 690 563 690 q 405 666 475 690 q 301 595 335 643 q 331 519 268 547 q 481 497 393 492 q 663 529 569 503 q 766 596 758 555 q 712 663 774 636 q 563 690 650 690 m 666 438 q 617 441 666 438 q 438 417 569 445 q 204 317 308 390 q 111 166 100 244 q 217 56 122 87 q 464 30 312 24 q 710 74 615 36 q 866 162 805 112 q 921 282 926 213 q 839 391 916 351 q 666 438 762 431 z "},"9":{"ha":789,"x_min":-10,"x_max":791,"o":"m 732 704 q 764 613 791 692 l 638 -25 q 528 -11 577 -76 l 625 402 q 284 367 431 351 q 63 458 137 383 q 26 623 -10 534 q 190 735 62 712 q 451 752 318 759 q 732 704 585 746 m 667 629 q 335 679 505 688 q 127 608 165 670 q 151 498 89 547 q 337 446 213 449 q 642 502 461 442 l 667 629 z "}," ":{"ha":386,"x_min":0,"x_max":0,"o":""},"!":{"ha":408,"x_min":119,"x_max":283,"o":"m 163 748 q 280 741 218 818 q 247 182 270 646 q 163 196 201 141 q 163 748 134 655 m 183 97 q 214 106 183 97 q 265 52 246 116 q 225 -29 283 -12 q 143 16 166 -45 q 183 97 119 78 z "},"\"":{"ha":541,"x_min":134,"x_max":399,"o":"m 281 754 q 397 784 309 824 q 366 494 399 631 l 288 526 q 281 754 288 648 m 134 754 q 251 784 162 824 q 219 494 252 631 l 142 526 q 134 754 140 648 z "},"#":{"ha":772,"x_min":0,"x_max":0,"o":""},"$":{"ha":885,"x_min":22,"x_max":875,"o":"m 390 673 q 235 636 321 667 q 138 569 148 605 q 178 506 129 533 q 389 512 228 479 l 390 673 m 473 766 q 757 720 595 764 q 731 646 770 663 q 474 684 574 692 l 474 522 q 752 474 667 527 q 856 342 838 422 q 846 198 875 262 q 726 60 817 134 q 478 -32 636 -13 l 479 -123 q 387 -140 423 -178 l 388 -43 q 203 -35 298 -55 q 22 54 109 -15 q 73 125 28 117 q 237 56 147 75 q 385 43 327 37 l 387 426 q 183 411 252 400 q 72 464 115 421 q 47 568 28 507 q 119 668 65 630 q 248 731 173 705 q 391 762 323 756 l 389 819 q 475 824 421 848 l 473 766 m 475 52 q 663 115 581 68 q 772 238 745 161 q 725 380 799 314 q 474 437 652 447 l 475 52 z "},"%":{"ha":1235,"x_min":0,"x_max":0,"o":""},"&":{"ha":926,"x_min":0,"x_max":0,"o":""},"'":{"ha":265,"x_min":61,"x_max":202,"o":"m 82 754 q 202 784 119 824 q 134 494 184 631 l 61 526 q 82 754 75 648 z "},"(":{"ha":237,"x_min":-171,"x_max":290,"o":"m 231 964 q 290 924 277 964 q 278 -210 -31 388 q 226 -233 263 -241 q 231 964 -171 387 z "},")":{"ha":240,"x_min":-42,"x_max":419,"o":"m 17 -234 q -42 -195 -29 -235 q -31 939 279 341 q 22 962 -15 970 q 17 -234 419 342 z "},"*":{"ha":541,"x_min":0,"x_max":0,"o":""},"+":{"ha":811,"x_min":0,"x_max":0,"o":""},",":{"ha":340,"x_min":45,"x_max":186,"o":"m 66 171 q 186 201 102 241 q 118 -89 168 48 l 45 -57 q 66 171 59 64 z "},"-":{"ha":538,"x_min":22,"x_max":515,"o":"m 475 473 q 469 379 515 428 l 52 361 q 63 454 22 410 l 475 473 z "},".":{"ha":342,"x_min":75,"x_max":250,"o":"m 107 146 q 123 161 107 146 q 175 171 138 177 q 230 110 211 164 q 181 31 250 55 q 94 61 113 7 q 107 146 75 115 z "},"/":{"ha":523,"x_min":-11,"x_max":547,"o":"m 477 861 q 547 815 530 861 l 79 -53 q -11 -27 2 -102 l 477 861 z "},":":{"ha":342,"x_min":84,"x_max":238,"o":"m 106 580 q 159 600 129 600 q 183 597 170 600 q 237 530 229 587 q 238 518 238 524 q 174 457 238 471 q 88 497 100 441 q 84 526 84 513 q 106 580 84 560 m 109 209 q 176 233 140 239 q 232 172 212 227 q 236 150 236 160 q 183 94 236 113 q 145 86 162 86 q 96 123 109 86 q 89 161 89 144 q 109 209 89 189 z "},";":{"ha":342,"x_min":75,"x_max":247,"o":"m 107 579 q 122 593 107 579 q 183 597 138 607 q 238 530 229 587 q 174 457 247 473 q 89 497 101 441 q 107 579 76 552 m 96 171 q 216 201 133 241 q 149 -89 199 48 l 75 -57 q 96 171 90 64 z "},"<":{"ha":811,"x_min":0,"x_max":0,"o":""},"=":{"ha":538,"x_min":22,"x_max":515,"o":"m 475 505 q 469 411 515 460 l 52 393 q 63 486 22 442 l 475 505 m 475 363 q 469 270 515 319 l 52 252 q 63 345 22 301 l 475 363 z "},">":{"ha":811,"x_min":0,"x_max":0,"o":""},"?":{"ha":758,"x_min":31,"x_max":734,"o":"m 180 742 q 207 750 180 742 q 384 754 233 757 q 630 687 535 751 q 729 562 724 623 q 682 451 734 500 q 530 379 630 401 q 362 323 429 358 q 376 233 296 289 q 296 176 354 176 q 237 313 222 244 q 320 406 253 382 q 463 445 387 431 q 590 497 540 459 q 597 592 640 534 q 468 665 553 649 q 290 680 383 681 q 88 597 196 678 q 31 656 39 615 q 89 708 51 688 q 180 742 127 728 m 325 104 q 356 102 325 104 q 392 63 387 100 q 372 1 396 26 q 291 -12 348 -24 q 248 55 233 1 q 325 104 262 109 z "},"@":{"ha":1410,"x_min":0,"x_max":0,"o":""},"A":{"ha":870,"x_min":-55,"x_max":924,"o":"m 368 741 q 472 720 410 771 l 924 37 q 826 -1 908 -12 l 720 153 l 108 107 l 36 -21 q -55 28 -42 -35 l 368 741 m 409 640 l 149 198 l 686 231 l 409 640 z "},"B":{"ha":957,"x_min":-44,"x_max":952,"o":"m 10 690 q 386 749 225 746 q 637 724 547 752 q 765 641 728 695 q 710 491 803 586 q 898 402 843 465 q 950 259 952 340 q 896 125 948 178 q 640 15 843 71 q 7 -1 437 -42 l 7 606 q 10 690 -44 654 m 102 633 l 104 494 q 633 500 273 524 q 665 602 686 563 q 584 662 645 640 q 382 681 524 683 q 102 633 240 678 m 100 412 l 100 88 q 539 70 428 47 q 718 112 650 93 q 823 175 787 131 q 852 287 859 218 q 788 389 846 355 q 549 435 730 424 q 100 412 367 446 z "},"C":{"ha":999,"x_min":-12,"x_max":994,"o":"m 459 733 q 512 743 459 733 q 667 741 564 753 q 962 658 770 729 q 916 575 994 604 q 776 633 831 616 q 651 663 721 650 q 506 663 582 677 q 345 615 429 650 q 207 530 260 581 q 126 399 155 480 q 117 266 98 318 q 180 169 136 213 q 284 103 224 125 q 437 65 345 82 q 633 67 529 48 q 904 187 736 87 q 972 137 972 178 q 878 62 963 115 q 659 -13 792 9 q 380 -10 525 -35 q 157 59 235 15 q 34 208 80 103 q 52 449 -12 313 q 235 649 116 585 q 459 733 353 713 z "},"D":{"ha":971,"x_min":3,"x_max":978,"o":"m 40 746 q 58 751 40 746 q 109 727 75 755 q 513 752 353 754 q 787 701 673 751 q 940 571 902 650 q 963 404 978 492 q 902 236 949 316 q 755 93 854 157 q 515 2 656 30 q 50 -22 374 -26 q 12 22 14 -15 l 3 712 q 40 746 5 737 m 111 625 l 109 84 q 495 89 373 64 q 695 168 616 114 q 809 274 774 221 q 858 395 844 328 q 847 521 872 463 q 731 625 823 580 q 525 672 640 669 q 111 625 411 675 z "},"E":{"ha":840,"x_min":-30,"x_max":840,"o":"m 745 766 q 751 691 800 728 l 133 671 l 132 546 l 747 571 q 750 490 802 534 l 132 466 l 132 76 l 786 93 q 792 8 840 62 l 127 -18 q 35 26 43 -21 l 37 663 q 47 755 -30 714 l 745 766 z "},"F":{"ha":726,"x_min":-52,"x_max":720,"o":"m 669 749 q 663 671 720 703 l 98 656 l 101 530 l 659 545 q 661 465 706 503 l 99 448 l 99 -12 q 6 -7 50 -63 l 6 663 q 23 741 -52 704 l 669 749 z "},"G":{"ha":999,"x_min":-12,"x_max":994,"o":"m 459 733 q 512 743 459 733 q 667 741 564 753 q 962 658 770 729 q 916 575 994 604 q 776 633 831 616 q 651 663 721 650 q 506 663 582 677 q 345 615 429 650 q 207 530 260 581 q 126 399 155 480 q 117 266 98 318 q 180 169 136 213 q 284 103 224 125 q 437 65 345 82 q 633 67 529 48 q 881 178 736 87 l 881 302 l 597 280 q 594 365 534 314 l 904 390 q 977 351 968 397 l 977 -86 q 883 -75 932 -133 l 883 68 q 659 -13 792 9 q 380 -10 525 -35 q 157 59 235 15 q 34 208 80 103 q 52 449 -12 313 q 235 649 116 585 q 459 733 353 713 z "},"H":{"ha":889,"x_min":10,"x_max":883,"o":"m 10 734 q 117 730 50 791 l 117 542 l 783 575 l 779 754 q 875 745 830 797 l 883 -3 q 792 -1 839 -26 l 785 493 l 117 465 l 116 -3 q 16 -5 58 -48 l 10 734 z "},"I":{"ha":338,"x_min":123,"x_max":218,"o":"m 218 739 l 218 -12 q 125 -7 170 -63 l 123 728 q 218 739 160 779 z "},"J":{"ha":646,"x_min":20,"x_max":628,"o":"m 613 740 q 607 132 628 193 q 547 43 586 71 q 440 -8 507 15 q 274 -22 373 -32 q 113 29 176 -12 q 26 129 51 70 q 97 172 20 177 q 192 85 143 109 q 303 57 240 61 q 429 78 367 52 q 517 152 490 103 q 519 740 543 201 q 613 740 561 785 z "},"K":{"ha":764,"x_min":29,"x_max":795,"o":"m 662 780 q 711 720 721 785 l 194 485 l 795 20 q 734 -33 787 -47 l 123 427 l 125 7 q 31 7 70 -32 l 29 742 q 126 728 75 778 l 125 534 l 662 780 z "},"L":{"ha":701,"x_min":-31,"x_max":716,"o":"m 15 744 q 112 739 60 772 l 112 45 l 663 72 q 676 -11 716 31 l 37 -41 q 22 31 -31 -5 l 15 744 z "},"M":{"ha":1107,"x_min":17,"x_max":1092,"o":"m 985 795 q 1084 769 1044 819 l 1092 3 q 998 -12 1049 -35 l 995 634 l 595 -27 q 500 -16 540 -57 l 115 610 l 120 -10 q 22 -14 66 -41 l 17 757 q 132 748 62 804 l 551 77 l 985 795 z "},"N":{"ha":888,"x_min":40,"x_max":871,"o":"m 152 737 l 785 86 l 777 744 q 869 744 824 790 l 871 5 q 751 -3 823 -39 l 127 621 l 136 -1 q 44 -5 90 -30 l 40 748 q 152 737 74 786 z "},"O":{"ha":1064,"x_min":9,"x_max":1028,"o":"m 434 745 q 535 761 434 745 q 744 735 637 778 q 940 596 851 692 q 1008 359 1028 500 q 883 127 988 218 q 632 -2 779 36 q 332 -4 486 -41 q 101 114 178 32 q 16 324 23 195 q 120 582 9 452 q 434 745 231 712 m 454 670 q 372 656 454 670 q 197 538 290 642 q 105 345 105 435 q 165 178 105 254 q 357 70 226 102 q 611 73 489 37 q 826 182 734 109 q 926 359 918 256 q 866 545 934 461 q 708 663 798 629 q 454 670 619 698 z "},"P":{"ha":793,"x_min":-41,"x_max":808,"o":"m 19 751 q 311 770 144 762 q 592 763 477 777 q 757 664 707 748 q 716 515 808 581 q 518 419 625 449 q 123 401 412 390 l 123 -5 q 27 -8 58 -58 l 22 669 q 19 751 -41 700 m 120 669 l 121 481 q 477 493 387 474 q 636 557 568 513 q 663 644 705 602 q 495 694 621 686 q 120 669 369 701 z "},"Q":{"ha":1064,"x_min":9,"x_max":1028,"o":"m 434 745 q 535 761 434 745 q 744 735 637 778 q 940 596 851 692 q 1008 359 1028 500 q 848 102 988 218 l 1013 -18 q 947 -78 1012 -71 l 773 49 q 332 -4 486 -41 q 101 114 178 32 q 16 324 23 195 q 120 582 9 452 q 434 745 231 712 m 454 670 q 372 656 454 670 q 197 538 290 642 q 105 345 105 435 q 165 178 105 254 q 357 70 226 102 q 718 111 489 37 l 497 288 q 567 338 486 347 l 785 164 q 926 359 918 256 q 866 545 934 461 q 708 663 798 629 q 454 670 619 698 z "},"R":{"ha":808,"x_min":-27,"x_max":818,"o":"m 25 751 q 317 770 151 762 q 598 763 484 777 q 765 639 713 748 q 724 451 818 530 q 524 343 631 372 q 258 325 418 313 l 785 -3 q 722 -65 812 -75 l 127 308 l 129 -5 q 33 -8 64 -58 l 28 662 q 25 751 -27 688 m 126 669 l 127 387 q 484 417 393 397 q 645 493 574 436 q 671 618 715 551 q 501 694 627 686 q 126 669 375 701 z "},"S":{"ha":983,"x_min":20,"x_max":977,"o":"m 437 766 q 477 769 437 766 q 590 770 517 772 q 845 723 664 768 q 817 650 860 667 q 498 683 640 696 q 259 640 357 671 q 151 572 161 608 q 196 510 140 536 q 380 506 252 483 q 625 519 509 530 q 838 467 741 509 q 957 346 936 425 q 945 201 977 266 q 811 64 912 137 q 519 -31 709 -9 q 223 -32 330 -52 q 20 57 117 -12 q 77 129 27 120 q 262 59 161 79 q 505 56 363 40 q 740 118 648 72 q 862 241 832 165 q 812 372 892 317 q 622 437 732 427 q 395 425 511 447 q 201 414 278 404 q 76 467 124 425 q 48 572 27 510 q 129 671 68 633 q 274 734 190 709 q 437 766 358 760 z "},"T":{"ha":926,"x_min":-16,"x_max":948,"o":"m 893 785 q 897 705 948 747 l 511 682 l 514 -14 q 418 -7 459 -56 l 413 673 l 26 651 q 31 736 -16 687 l 893 785 z "},"U":{"ha":964,"x_min":7,"x_max":939,"o":"m 26 737 q 126 733 68 787 q 136 136 107 195 q 225 47 164 76 q 424 35 287 19 q 652 83 560 50 q 781 161 744 117 q 829 268 818 205 q 834 766 840 330 q 922 757 878 798 q 926 270 939 361 q 854 104 913 178 q 689 -1 796 30 q 493 -43 582 -33 q 326 -54 404 -54 q 166 -29 249 -54 q 46 74 84 -3 q 26 737 7 151 z "},"V":{"ha":940,"x_min":-44,"x_max":996,"o":"m 52 752 l 451 99 l 910 745 q 996 708 985 769 l 509 -5 q 384 9 432 -40 l -44 701 q 52 752 -44 771 z "},"W":{"ha":1042,"x_min":-15,"x_max":1057,"o":"m 511 562 l 275 12 q 143 3 189 -43 l -15 764 q 84 774 29 804 l 221 122 l 460 679 q 577 684 498 720 l 808 116 l 962 775 q 1057 761 1013 799 l 880 10 q 762 -8 841 -40 l 511 562 z "},"X":{"ha":886,"x_min":-34,"x_max":911,"o":"m 842 784 q 905 731 911 784 l 505 383 l 882 35 q 812 -24 865 -17 l 441 314 l 34 -18 q -34 49 -20 -28 l 374 379 l 37 725 q 117 782 69 772 l 446 442 l 842 784 z "},"Y":{"ha":823,"x_min":-78,"x_max":923,"o":"m 7 772 l 364 476 l 841 792 q 903 729 923 789 l 420 395 l 426 -2 q 320 -3 373 -53 l 321 389 l -71 717 q 7 772 -78 776 z "},"Z":{"ha":926,"x_min":6,"x_max":954,"o":"m 47 -45 q 40 42 6 -29 l 713 663 l 61 650 q 67 736 18 699 l 867 753 q 866 665 918 731 l 168 47 l 869 89 q 882 -17 954 58 l 47 -45 z "},"[":{"ha":386,"x_min":0,"x_max":0,"o":""},"\\":{"ha":386,"x_min":0,"x_max":0,"o":""},"]":{"ha":386,"x_min":0,"x_max":0,"o":""},"^":{"ha":652,"x_min":0,"x_max":0,"o":""},"_":{"ha":772,"x_min":0,"x_max":0,"o":""},"`":{"ha":541,"x_min":193,"x_max":404,"o":"m 280 846 q 404 659 359 802 l 372 619 q 193 797 306 739 q 198 816 193 807 q 243 859 213 859 q 280 846 259 859 z "},"a":{"ha":663,"x_min":-19,"x_max":628,"o":"m 134 432 q 381 496 222 496 q 580 446 541 496 q 628 309 620 396 l 628 -1 q 545 -9 581 -32 l 545 105 q 236 -17 406 -11 q 24 65 66 -24 q 104 224 -19 154 q 543 296 227 294 q 483 409 559 383 q 322 427 407 435 q 146 361 237 420 q 134 432 100 389 m 542 232 q 166 181 242 222 q 112 91 90 141 q 258 49 135 41 q 540 170 382 56 l 542 232 z "},"b":{"ha":763,"x_min":41,"x_max":767,"o":"m 41 692 q 124 681 70 697 l 125 363 q 414 431 279 412 q 658 404 549 450 q 709 222 767 357 q 454 23 650 88 q 122 41 257 -42 l 123 -6 q 45 20 58 -44 l 41 692 m 611 351 q 573 370 611 351 q 412 366 535 390 q 122 286 288 342 l 123 120 q 409 81 246 28 q 629 223 572 134 q 611 351 686 312 z "},"c":{"ha":765,"x_min":12,"x_max":753,"o":"m 335 454 q 414 477 335 454 q 711 460 494 500 q 689 396 727 418 q 358 391 489 421 q 150 264 227 360 q 146 104 73 169 q 340 47 218 39 q 703 146 461 56 q 732 79 753 126 q 321 -16 434 -17 q 121 28 209 -16 q 22 155 33 73 q 94 322 12 237 q 335 454 176 408 z "},"d":{"ha":755,"x_min":13,"x_max":730,"o":"m 649 669 q 730 671 686 703 l 728 0 q 644 5 669 -41 l 642 88 q 473 26 549 53 q 274 -10 397 -1 q 82 28 151 -18 q 25 150 13 75 q 122 297 37 224 q 326 401 208 371 q 647 392 443 431 l 649 669 m 645 319 q 347 329 422 353 q 194 257 271 304 q 110 140 117 209 q 205 59 102 72 q 423 82 309 46 q 644 179 538 118 l 645 319 z "},"e":{"ha":775,"x_min":-19,"x_max":760,"o":"m 200 415 q 246 439 200 415 q 394 482 292 463 q 613 476 496 500 q 742 372 730 451 q 578 215 753 293 q 105 161 402 136 q 201 75 119 102 q 416 58 283 47 q 705 155 549 69 q 755 83 760 133 q 637 34 688 53 q 535 1 585 15 q 421 -15 484 -13 q 225 -2 357 -18 q 37 103 93 13 q 44 281 -19 194 q 200 415 108 368 m 531 418 q 481 420 531 418 q 293 379 431 422 q 106 227 155 336 q 526 267 385 207 q 649 371 668 328 q 531 418 630 414 z "},"f":{"ha":445,"x_min":-24,"x_max":487,"o":"m 117 640 q 140 665 117 640 q 249 708 163 690 q 439 693 335 726 q 416 629 467 646 q 205 621 261 654 q 166 415 149 587 l 453 430 q 456 357 487 387 l 170 344 l 176 -28 q 93 -33 134 -60 l 87 332 l -3 330 q -2 401 -24 366 l 82 413 q 117 640 71 590 z "},"g":{"ha":799,"x_min":-9,"x_max":843,"o":"m 524 466 q 559 470 524 466 q 735 464 594 475 q 714 -197 843 -118 q 449 -273 585 -275 q 94 -205 313 -270 q 116 -132 45 -153 q 453 -196 349 -196 q 647 -140 557 -195 q 693 163 738 -85 q 381 -5 572 18 q 90 20 190 -28 q 4 161 -9 69 q 122 325 18 254 q 340 426 226 396 q 524 466 454 456 m 664 386 q 305 342 459 404 q 101 191 151 281 q 148 72 52 102 q 382 67 244 43 q 686 256 521 91 l 664 386 z "},"h":{"ha":647,"x_min":26,"x_max":631,"o":"m 26 679 q 100 675 54 720 l 102 344 q 369 456 247 442 q 555 418 492 470 q 625 272 618 366 q 576 -8 631 178 q 497 1 523 -43 q 543 253 546 160 q 478 375 539 345 q 328 385 417 405 q 109 251 239 365 l 110 3 q 29 -3 64 -43 l 26 679 z "},"i":{"ha":197,"x_min":45,"x_max":153,"o":"m 69 483 q 152 477 116 513 q 153 -9 117 237 q 77 -12 111 -37 q 69 483 45 230 z "},"j":{"ha":519,"x_min":18,"x_max":486,"o":"m 391 483 q 465 481 432 515 q 466 -99 486 9 q 342 -248 445 -208 q 129 -256 239 -288 q 41 -53 18 -225 q 128 -41 76 -23 q 164 -190 100 -166 q 306 -182 229 -214 q 393 -51 384 -149 q 391 483 401 47 z "},"k":{"ha":687,"x_min":45,"x_max":670,"o":"m 45 684 q 123 685 83 709 l 122 271 l 533 449 q 574 389 587 438 l 212 237 l 661 38 q 613 -14 670 -21 l 123 210 l 125 -11 q 48 -25 85 -49 l 45 684 z "},"l":{"ha":197,"x_min":45,"x_max":153,"o":"m 69 674 q 152 665 116 715 q 153 -3 117 335 q 77 -7 111 -43 q 69 674 45 326 z "},"m":{"ha":1036,"x_min":45,"x_max":996,"o":"m 123 400 q 281 483 184 469 q 442 481 378 496 q 549 388 506 466 q 752 494 624 491 q 930 457 880 497 q 996 289 980 418 l 991 -1 q 910 -5 940 -52 q 898 366 934 306 q 768 429 863 427 q 562 308 673 431 l 559 -15 q 475 -12 500 -53 l 475 326 q 417 411 470 399 q 279 401 364 422 q 126 304 194 380 l 128 51 l 128 -22 q 47 -22 81 -64 l 45 467 q 125 469 79 502 l 123 400 z "},"n":{"ha":643,"x_min":45,"x_max":631,"o":"m 123 400 q 281 483 184 469 q 463 480 378 496 q 590 378 548 463 q 601 -18 631 293 q 517 -14 542 -56 q 526 314 540 231 q 438 410 512 397 q 279 401 364 422 q 126 304 194 380 l 128 51 l 128 -22 q 47 -22 81 -64 l 45 467 q 125 469 79 502 l 123 400 z "},"o":{"ha":827,"x_min":-26,"x_max":835,"o":"m 270 454 q 341 475 270 454 q 515 488 412 497 q 689 445 618 479 q 798 320 760 411 q 756 142 835 229 q 570 16 678 56 q 320 -25 461 -23 q 77 70 180 -26 q 51 288 -26 165 q 270 454 127 410 m 476 416 q 420 417 476 416 q 267 378 364 417 q 129 258 170 338 q 161 112 87 177 q 349 48 234 46 q 569 88 465 50 q 707 215 673 126 q 665 359 742 303 q 476 416 588 416 z "},"p":{"ha":755,"x_min":31,"x_max":730,"o":"m 117 -247 q 31 -268 75 -300 l 33 458 q 116 452 92 500 l 119 412 q 291 462 212 448 q 470 475 370 477 q 645 429 570 473 q 726 278 721 385 q 657 106 730 171 q 451 31 584 41 q 113 96 318 20 l 117 -247 m 115 169 q 410 100 301 96 q 581 149 519 104 q 641 276 643 195 q 545 385 639 358 q 337 397 452 412 q 117 321 222 382 l 115 169 z "},"q":{"ha":755,"x_min":31,"x_max":731,"o":"m 645 -272 l 646 95 q 315 22 444 20 q 109 81 186 23 q 36 245 31 138 q 116 413 41 353 q 291 475 192 473 q 470 462 391 477 q 643 412 549 448 l 644 456 q 728 446 670 500 l 731 -250 q 645 -272 685 -291 m 644 174 l 644 321 q 419 390 526 377 q 217 365 311 404 q 121 244 123 326 q 188 127 119 162 q 350 97 258 93 q 644 174 442 102 z "},"r":{"ha":551,"x_min":45,"x_max":544,"o":"m 123 400 q 281 483 184 469 q 519 439 378 496 q 490 373 544 387 q 279 401 364 422 q 126 304 194 380 l 128 51 l 128 -22 q 47 -22 81 -64 l 45 467 q 125 469 79 502 l 123 400 z "},"s":{"ha":701,"x_min":-16,"x_max":694,"o":"m 179 463 q 242 484 179 463 q 535 486 306 504 q 524 417 562 468 q 281 411 355 422 q 151 381 208 401 q 114 326 94 361 q 256 312 134 290 q 464 333 378 334 q 610 310 551 332 q 682 217 670 287 q 637 80 694 146 q 416 -14 581 13 q 24 31 252 -40 q 39 98 -16 79 q 409 61 282 41 q 579 132 536 81 q 581 225 623 182 q 445 268 538 269 q 230 250 351 267 q 48 275 109 233 q 19 370 -13 317 q 179 463 52 422 z "},"t":{"ha":379,"x_min":-31,"x_max":422,"o":"m 145 613 q 229 623 189 647 l 230 471 l 383 478 q 376 401 422 449 l 237 398 l 243 21 q 153 -3 214 -52 l 145 389 l 0 385 q 20 463 -31 435 l 146 466 l 145 613 z "},"u":{"ha":612,"x_min":3,"x_max":601,"o":"m 555 58 q 533 27 555 58 q 383 -16 510 -3 q 171 -11 256 -28 q 44 91 85 5 q 33 486 3 176 q 117 483 92 524 q 107 154 94 237 q 195 58 121 71 q 366 58 269 45 q 485 117 463 71 q 507 291 508 164 q 505 491 506 418 q 586 491 553 532 q 555 58 601 119 z "},"v":{"ha":711,"x_min":1,"x_max":709,"o":"m 634 484 q 709 465 679 500 l 374 -1 q 285 -7 325 -50 l 1 451 q 80 486 14 507 l 328 68 l 634 484 z "},"w":{"ha":869,"x_min":-31,"x_max":905,"o":"m 382 484 q 455 490 410 505 l 635 79 l 810 490 q 905 487 865 507 l 680 -12 q 588 -18 637 -47 l 412 393 l 216 -20 q 136 -24 175 -37 l -31 477 q 54 484 5 510 l 182 75 l 382 484 z "},"x":{"ha":676,"x_min":-15,"x_max":660,"o":"m 588 501 q 660 454 656 501 l 402 238 l 643 24 q 560 -16 623 -33 l 342 185 l 66 -31 q -15 16 -10 -34 l 281 235 l 46 433 q 125 476 50 490 l 347 290 l 588 501 z "},"y":{"ha":696,"x_min":-61,"x_max":736,"o":"m 552 469 q 627 484 587 507 q 607 -197 736 -118 q 342 -273 478 -275 q -13 -205 207 -270 q 9 -132 -61 -153 q 347 -196 243 -196 q 541 -140 450 -195 q 587 163 631 -85 q 323 -3 465 18 q 108 14 181 -24 q 22 155 35 52 q 80 487 9 258 q 171 483 142 509 q 146 91 58 135 q 325 69 235 47 q 579 256 414 91 l 552 469 z "},"z":{"ha":681,"x_min":4,"x_max":692,"o":"m 622 497 q 638 423 659 490 l 161 50 l 640 62 q 636 -11 692 38 l 51 -25 q 31 48 4 -34 l 519 414 l 62 405 q 64 484 37 448 l 622 497 z "},"{":{"ha":464,"x_min":0,"x_max":0,"o":""},"|":{"ha":361,"x_min":0,"x_max":0,"o":""},"}":{"ha":464,"x_min":0,"x_max":0,"o":""},"~":{"ha":811,"x_min":0,"x_max":0,"o":""},"Ä":{"ha":870,"x_min":-55,"x_max":924,"o":"m 368 741 q 472 720 410 771 l 924 37 q 826 -1 908 -12 l 720 153 l 108 107 l 36 -21 q -55 28 -42 -35 l 368 741 m 409 640 l 149 198 l 686 231 l 409 640 m 239 1030 q 283 1046 258 1046 q 304 1044 293 1046 q 350 989 342 1036 q 351 980 351 984 q 296 930 351 941 q 271 927 282 927 q 223 962 231 927 q 220 987 220 975 q 239 1030 220 1015 m 492 932 q 448 974 456 945 q 474 1036 439 1002 q 490 1047 482 1044 q 507 1050 498 1050 q 553 1028 528 1050 q 572 1002 566 1015 q 576 983 576 992 q 562 953 576 967 q 536 935 549 941 q 511 929 523 929 q 492 932 500 929 z "},"Å":{"ha":926,"x_min":0,"x_max":0,"o":""},"Ç":{"ha":999,"x_min":-12,"x_max":994,"o":"m 459 733 q 512 743 459 733 q 667 741 564 753 q 962 658 770 729 q 916 575 994 604 q 776 633 831 616 q 651 663 721 650 q 506 663 582 677 q 345 615 429 650 q 207 530 260 581 q 126 399 155 480 q 117 266 98 318 q 180 169 136 213 q 284 103 224 125 q 437 65 345 82 q 633 67 529 48 q 904 187 736 87 q 972 137 972 178 q 878 62 963 115 q 659 -13 792 9 q 380 -10 525 -35 q 157 59 235 15 q 34 208 80 103 q 52 449 -12 313 q 235 649 116 585 q 459 733 353 713 m 524 -97 q 560 -110 540 -104 q 591 -121 578 -114 q 622 -143 610 -130 q 637 -182 637 -161 l 637 -186 q 605 -235 636 -210 q 524 -261 574 -260 l 486 -261 q 437 -256 451 -260 q 406 -243 419 -251 q 387 -223 393 -235 q 405 -200 390 -208 q 415 -195 409 -197 q 423 -201 419 -198 q 426 -200 425 -200 q 454 -220 440 -212 q 481 -227 468 -226 q 541 -221 512 -227 q 555 -216 549 -219 q 574 -197 567 -209 q 571 -161 588 -176 q 530 -141 555 -146 q 483 -125 505 -135 q 455 -89 460 -116 q 475 -36 450 -62 l 479 -36 q 484 -31 481 -33 q 500 -37 493 -31 q 521 -58 515 -40 q 517 -94 494 -80 q 524 -97 520 -96 z "},"É":{"ha":840,"x_min":-30,"x_max":840,"o":"m 745 766 q 751 691 800 728 l 133 671 l 132 546 l 747 571 q 750 490 802 534 l 132 466 l 132 76 l 786 93 q 792 8 840 62 l 127 -18 q 35 26 43 -21 l 37 663 q 47 755 -30 714 l 745 766 m 486 1107 q 523 1120 507 1120 q 568 1078 553 1120 q 573 1059 573 1069 q 393 881 505 958 l 362 920 q 486 1107 452 1021 z "},"Ñ":{"ha":888,"x_min":40,"x_max":871,"o":"m 152 737 l 785 86 l 777 744 q 869 744 824 790 l 871 5 q 751 -3 823 -39 l 127 621 l 136 -1 q 44 -5 90 -30 l 40 748 q 152 737 74 786 m 325 1031 q 332 1032 328 1032 q 378 1014 350 1032 l 514 941 l 581 1023 q 638 1010 599 1031 l 552 886 q 546 884 553 884 q 490 897 531 884 l 363 970 l 297 891 q 241 913 273 900 l 325 1031 z "},"Ö":{"ha":1064,"x_min":9,"x_max":1028,"o":"m 434 745 q 535 761 434 745 q 744 735 637 778 q 940 596 851 692 q 1008 359 1028 500 q 883 127 988 218 q 632 -2 779 36 q 332 -4 486 -41 q 101 114 178 32 q 16 324 23 195 q 120 582 9 452 q 434 745 231 712 m 454 670 q 372 656 454 670 q 197 538 290 642 q 105 345 105 435 q 165 178 105 254 q 357 70 226 102 q 611 73 489 37 q 826 182 734 109 q 926 359 918 256 q 866 545 934 461 q 708 663 798 629 q 454 670 619 698 m 350 1027 q 395 1044 369 1044 q 415 1042 404 1044 q 461 987 454 1034 q 462 977 462 981 q 407 927 462 939 q 382 924 393 924 q 334 960 342 924 q 331 984 331 972 q 350 1027 331 1012 m 603 929 q 559 971 568 942 q 585 1034 551 1000 q 601 1044 593 1041 q 618 1048 610 1048 q 664 1025 640 1048 q 684 1000 677 1013 q 688 981 688 989 q 673 950 688 964 q 647 932 660 938 q 622 926 634 926 q 603 929 612 926 z "},"Ü":{"ha":964,"x_min":7,"x_max":939,"o":"m 26 737 q 126 733 68 787 q 136 136 107 195 q 225 47 164 76 q 424 35 287 19 q 652 83 560 50 q 781 161 744 117 q 829 268 818 205 q 834 766 840 330 q 922 757 878 798 q 926 270 939 361 q 854 104 913 178 q 689 -1 796 30 q 493 -43 582 -33 q 326 -54 404 -54 q 166 -29 249 -54 q 46 74 84 -3 q 26 737 7 151 m 317 1025 q 362 1041 336 1041 q 382 1039 372 1041 q 429 984 421 1031 q 429 975 429 979 q 374 924 429 936 q 350 922 361 922 q 302 957 310 922 q 298 981 298 970 q 317 1025 298 1009 m 570 926 q 527 968 535 939 q 553 1031 518 997 q 568 1042 561 1038 q 586 1045 577 1045 q 631 1023 607 1045 q 651 997 644 1010 q 655 978 655 987 q 640 947 655 962 q 614 929 627 935 q 589 924 602 924 q 570 926 579 924 z "},"á":{"ha":663,"x_min":-19,"x_max":628,"o":"m 134 432 q 381 496 222 496 q 580 446 541 496 q 628 309 620 396 l 628 -1 q 545 -9 581 -32 l 545 105 q 236 -17 406 -11 q 24 65 66 -24 q 104 224 -19 154 q 543 296 227 294 q 483 409 559 383 q 322 427 407 435 q 146 361 237 420 q 134 432 100 389 m 542 232 q 166 181 242 222 q 112 91 90 141 q 258 49 135 41 q 540 170 382 56 l 542 232 m 442 846 q 479 859 463 859 q 524 816 509 859 q 530 797 530 807 q 350 619 462 696 l 319 659 q 442 846 408 760 z "},"à":{"ha":663,"x_min":-17,"x_max":630,"o":"m 136 432 q 383 496 224 496 q 582 446 543 496 q 630 309 622 396 l 630 -1 q 547 -9 583 -32 l 547 105 q 238 -17 408 -11 q 26 65 68 -24 q 106 224 -17 154 q 545 296 229 294 q 485 409 562 383 q 324 427 409 435 q 149 361 239 420 q 136 432 102 389 m 544 232 q 168 181 244 222 q 114 91 92 141 q 260 49 137 41 q 542 170 384 56 l 544 232 m 286 846 q 409 659 365 802 l 378 619 q 198 797 311 739 q 203 816 198 807 q 248 859 218 859 q 286 846 264 859 z "},"â":{"ha":663,"x_min":-19,"x_max":628,"o":"m 134 432 q 381 496 222 496 q 580 446 541 496 q 628 309 620 396 l 628 -1 q 545 -9 581 -32 l 545 105 q 236 -17 406 -11 q 24 65 66 -24 q 104 224 -19 154 q 543 296 227 294 q 483 409 559 383 q 322 427 407 435 q 146 361 237 420 q 134 432 100 389 m 542 232 q 166 181 242 222 q 112 91 90 141 q 258 49 135 41 q 540 170 382 56 l 542 232 m 264 625 q 244 622 254 622 q 206 636 222 622 l 340 777 q 379 793 361 793 q 410 781 395 793 l 517 642 q 481 617 510 617 q 456 621 471 617 l 376 736 l 264 625 z "},"ä":{"ha":663,"x_min":-19,"x_max":628,"o":"m 134 432 q 381 496 222 496 q 580 446 541 496 q 628 309 620 396 l 628 -1 q 545 -9 581 -32 l 545 105 q 236 -17 406 -11 q 24 65 66 -24 q 104 224 -19 154 q 543 296 227 294 q 483 409 559 383 q 322 427 407 435 q 146 361 237 420 q 134 432 100 389 m 542 232 q 166 181 242 222 q 112 91 90 141 q 258 49 135 41 q 540 170 382 56 l 542 232 m 196 748 q 241 764 215 764 q 261 762 250 764 q 307 707 300 754 q 308 698 308 702 q 253 648 308 659 q 229 645 239 645 q 180 680 189 645 q 177 705 177 693 q 196 748 177 732 m 449 650 q 405 691 414 663 q 431 754 397 720 q 447 765 439 762 q 465 768 456 768 q 510 746 486 768 q 530 720 523 733 q 534 701 534 710 q 519 671 534 685 q 493 652 506 659 q 468 647 480 647 q 449 650 458 647 z "},"ã":{"ha":663,"x_min":-19,"x_max":628,"o":"m 134 432 q 381 496 222 496 q 580 446 541 496 q 628 309 620 396 l 628 -1 q 545 -9 581 -32 l 545 105 q 236 -17 406 -11 q 24 65 66 -24 q 104 224 -19 154 q 543 296 227 294 q 483 409 559 383 q 322 427 407 435 q 146 361 237 420 q 134 432 100 389 m 542 232 q 166 181 242 222 q 112 91 90 141 q 258 49 135 41 q 540 170 382 56 l 542 232 m 224 752 q 231 753 227 753 q 277 734 249 753 l 413 661 l 480 744 q 537 731 498 751 l 451 607 q 445 604 452 604 q 389 617 430 604 l 262 690 l 196 612 q 140 633 172 621 l 224 752 z "},"å":{"ha":772,"x_min":0,"x_max":0,"o":""},"ç":{"ha":765,"x_min":12,"x_max":753,"o":"m 335 454 q 414 477 335 454 q 711 460 494 500 q 689 396 727 418 q 358 391 489 421 q 150 264 227 360 q 146 104 73 169 q 340 47 218 39 q 703 146 461 56 q 732 79 753 126 q 321 -16 434 -17 q 121 28 209 -16 q 22 155 33 73 q 94 322 12 237 q 335 454 176 408 m 401 -91 q 438 -104 418 -98 q 469 -115 456 -108 q 500 -137 488 -123 q 515 -176 515 -155 l 515 -180 q 483 -229 514 -204 q 401 -255 452 -254 l 364 -255 q 315 -250 329 -254 q 284 -237 297 -245 q 265 -217 271 -229 q 283 -194 268 -201 q 293 -189 287 -191 q 301 -195 297 -192 q 304 -194 302 -194 q 332 -214 318 -206 q 359 -220 346 -220 q 418 -215 390 -221 q 433 -210 427 -213 q 452 -191 445 -203 q 449 -155 466 -170 q 408 -135 433 -140 q 360 -119 382 -129 q 333 -83 338 -110 q 353 -30 328 -56 l 357 -30 q 361 -24 359 -27 q 378 -31 371 -25 q 399 -52 393 -34 q 395 -87 372 -74 q 401 -91 398 -90 z "},"é":{"ha":775,"x_min":-19,"x_max":760,"o":"m 200 415 q 246 439 200 415 q 394 482 292 463 q 613 476 496 500 q 742 372 730 451 q 578 215 753 293 q 105 161 402 136 q 201 75 119 102 q 416 58 283 47 q 705 155 549 69 q 755 83 760 133 q 637 34 688 53 q 535 1 585 15 q 421 -15 484 -13 q 225 -2 357 -18 q 37 103 93 13 q 44 281 -19 194 q 200 415 108 368 m 531 418 q 481 420 531 418 q 293 379 431 422 q 106 227 155 336 q 526 267 385 207 q 649 371 668 328 q 531 418 630 414 m 492 846 q 529 859 513 859 q 574 816 559 859 q 579 797 579 807 q 399 619 511 696 l 368 659 q 492 846 458 760 z "},"è":{"ha":775,"x_min":-19,"x_max":760,"o":"m 200 415 q 246 439 200 415 q 394 482 292 463 q 613 476 496 500 q 742 372 730 451 q 578 215 753 293 q 105 161 402 136 q 201 75 119 102 q 416 58 283 47 q 705 155 549 69 q 755 83 760 133 q 637 34 688 53 q 535 1 585 15 q 421 -15 484 -13 q 225 -2 357 -18 q 37 103 93 13 q 44 281 -19 194 q 200 415 108 368 m 531 418 q 481 420 531 418 q 293 379 431 422 q 106 227 155 336 q 526 267 385 207 q 649 371 668 328 q 531 418 630 414 m 321 846 q 445 659 401 802 l 414 619 q 234 797 347 739 q 239 816 234 807 q 284 859 254 859 q 321 846 300 859 z "},"ê":{"ha":775,"x_min":-19,"x_max":760,"o":"m 200 415 q 246 439 200 415 q 394 482 292 463 q 613 476 496 500 q 742 372 730 451 q 578 215 753 293 q 105 161 402 136 q 201 75 119 102 q 416 58 283 47 q 705 155 549 69 q 755 83 760 133 q 637 34 688 53 q 535 1 585 15 q 421 -15 484 -13 q 225 -2 357 -18 q 37 103 93 13 q 44 281 -19 194 q 200 415 108 368 m 531 418 q 481 420 531 418 q 293 379 431 422 q 106 227 155 336 q 526 267 385 207 q 649 371 668 328 q 531 418 630 414 m 293 621 q 273 618 282 618 q 235 633 251 618 l 369 773 q 408 789 389 789 q 438 777 424 789 l 545 638 q 510 614 538 614 q 485 617 499 614 l 405 732 l 293 621 z "},"ë":{"ha":775,"x_min":-19,"x_max":760,"o":"m 200 415 q 246 439 200 415 q 394 482 292 463 q 613 476 496 500 q 742 372 730 451 q 578 215 753 293 q 105 161 402 136 q 201 75 119 102 q 416 58 283 47 q 705 155 549 69 q 755 83 760 133 q 637 34 688 53 q 535 1 585 15 q 421 -15 484 -13 q 225 -2 357 -18 q 37 103 93 13 q 44 281 -19 194 q 200 415 108 368 m 531 418 q 481 420 531 418 q 293 379 431 422 q 106 227 155 336 q 526 267 385 207 q 649 371 668 328 q 531 418 630 414 m 241 748 q 286 764 260 764 q 306 762 295 764 q 352 707 345 754 q 353 698 353 702 q 298 648 353 659 q 273 645 284 645 q 225 680 233 645 q 222 705 222 693 q 241 748 222 732 m 494 650 q 450 691 458 663 q 476 754 441 720 q 492 765 484 762 q 509 768 500 768 q 555 746 530 768 q 574 720 568 733 q 578 701 578 710 q 564 671 578 685 q 538 652 551 659 q 513 647 525 647 q 494 650 503 647 z "},"í":{"ha":197,"x_min":45,"x_max":284,"o":"m 69 483 q 152 477 116 513 q 153 -9 117 237 q 77 -12 111 -37 q 69 483 45 230 m 197 846 q 234 859 218 859 q 279 816 264 859 q 284 797 284 807 q 104 619 216 696 l 73 659 q 197 846 163 760 z "},"ì":{"ha":197,"x_min":-59,"x_max":154,"o":"m 70 483 q 153 477 117 513 q 154 -9 117 237 q 77 -12 111 -37 q 70 483 45 230 m 28 846 q 152 659 108 802 l 121 619 q -59 797 54 739 q -54 816 -59 807 q -9 859 -39 859 q 28 846 7 859 z "},"î":{"ha":197,"x_min":-9,"x_max":239,"o":"m 75 483 q 157 477 121 513 q 159 -9 122 237 q 82 -12 116 -37 q 75 483 50 230 m 38 621 q 22 618 30 618 q -8 633 5 618 l 99 773 q 130 789 115 789 q 154 777 143 789 l 240 638 q 212 614 235 614 q 192 617 203 614 l 128 732 l 38 621 z "},"ï":{"ha":197,"x_min":-54,"x_max":302,"o":"m 69 483 q 152 477 116 513 q 153 -9 117 237 q 77 -12 111 -37 q 69 483 45 230 m -35 748 q 9 764 -16 764 q 30 762 19 764 q 76 707 68 754 q 77 698 77 702 q 22 648 77 659 q -3 645 8 645 q -51 680 -43 645 q -54 705 -54 693 q -35 748 -54 732 m 218 650 q 174 691 182 663 q 200 754 165 720 q 216 765 208 762 q 233 768 224 768 q 279 746 254 768 q 298 720 292 733 q 302 701 302 710 q 288 671 302 685 q 262 652 275 659 q 237 647 249 647 q 218 650 227 647 z "},"ñ":{"ha":643,"x_min":45,"x_max":631,"o":"m 123 400 q 281 483 184 469 q 463 480 378 496 q 590 378 548 463 q 601 -18 631 293 q 517 -14 542 -56 q 526 314 540 231 q 438 410 512 397 q 279 401 364 422 q 126 304 194 380 l 128 51 l 128 -22 q 47 -22 81 -64 l 45 467 q 125 469 79 502 l 123 400 m 224 752 q 231 753 227 753 q 277 734 249 753 l 413 661 l 480 744 q 537 731 498 751 l 451 607 q 445 604 452 604 q 389 617 430 604 l 262 690 l 196 612 q 140 633 172 621 l 224 752 z "},"ó":{"ha":827,"x_min":-26,"x_max":835,"o":"m 270 454 q 341 475 270 454 q 515 488 412 497 q 689 445 618 479 q 798 320 760 411 q 756 142 835 229 q 570 16 678 56 q 320 -25 461 -23 q 77 70 180 -26 q 51 288 -26 165 q 270 454 127 410 m 476 416 q 420 417 476 416 q 267 378 364 417 q 129 258 170 338 q 161 112 87 177 q 349 48 234 46 q 569 88 465 50 q 707 215 673 126 q 665 359 742 303 q 476 416 588 416 m 526 846 q 564 859 547 859 q 608 816 593 859 q 614 797 614 807 q 434 619 546 696 l 403 659 q 526 846 492 760 z "},"ò":{"ha":827,"x_min":-26,"x_max":835,"o":"m 270 454 q 341 475 270 454 q 515 488 412 497 q 689 445 618 479 q 798 320 760 411 q 756 142 835 229 q 570 16 678 56 q 320 -25 461 -23 q 77 70 180 -26 q 51 288 -26 165 q 270 454 127 410 m 476 416 q 420 417 476 416 q 267 378 364 417 q 129 258 170 338 q 161 112 87 177 q 349 48 234 46 q 569 88 465 50 q 707 215 673 126 q 665 359 742 303 q 476 416 588 416 m 336 846 q 459 659 415 802 l 428 619 q 248 797 361 739 q 254 816 248 807 q 298 859 269 859 q 336 846 315 859 z "},"ô":{"ha":827,"x_min":-26,"x_max":835,"o":"m 270 454 q 341 475 270 454 q 515 488 412 497 q 689 445 618 479 q 798 320 760 411 q 756 142 835 229 q 570 16 678 56 q 320 -25 461 -23 q 77 70 180 -26 q 51 288 -26 165 q 270 454 127 410 m 476 416 q 420 417 476 416 q 267 378 364 417 q 129 258 170 338 q 161 112 87 177 q 349 48 234 46 q 569 88 465 50 q 707 215 673 126 q 665 359 742 303 q 476 416 588 416 m 341 621 q 321 618 330 618 q 283 633 299 618 l 417 773 q 456 789 437 789 q 486 777 472 789 l 593 638 q 558 614 587 614 q 533 617 547 614 l 453 732 l 341 621 z "},"ö":{"ha":827,"x_min":-26,"x_max":835,"o":"m 270 454 q 341 475 270 454 q 515 488 412 497 q 689 445 618 479 q 798 320 760 411 q 756 142 835 229 q 570 16 678 56 q 320 -25 461 -23 q 77 70 180 -26 q 51 288 -26 165 q 270 454 127 410 m 476 416 q 420 417 476 416 q 267 378 364 417 q 129 258 170 338 q 161 112 87 177 q 349 48 234 46 q 569 88 465 50 q 707 215 673 126 q 665 359 742 303 q 476 416 588 416 m 267 748 q 312 764 286 764 q 332 762 321 764 q 378 707 371 754 q 379 698 379 702 q 324 648 379 659 q 300 645 311 645 q 252 680 260 645 q 248 705 248 693 q 267 748 248 732 m 520 650 q 476 691 485 663 q 503 754 468 720 q 518 765 511 762 q 536 768 527 768 q 581 746 557 768 q 601 720 594 733 q 605 701 605 710 q 590 671 605 685 q 564 652 577 659 q 539 647 551 647 q 520 650 529 647 z "},"õ":{"ha":827,"x_min":-26,"x_max":835,"o":"m 270 454 q 341 475 270 454 q 515 488 412 497 q 689 445 618 479 q 798 320 760 411 q 756 142 835 229 q 570 16 678 56 q 320 -25 461 -23 q 77 70 180 -26 q 51 288 -26 165 q 270 454 127 410 m 476 416 q 420 417 476 416 q 267 378 364 417 q 129 258 170 338 q 161 112 87 177 q 349 48 234 46 q 569 88 465 50 q 707 215 673 126 q 665 359 742 303 q 476 416 588 416 m 312 752 q 319 753 315 753 q 365 734 337 753 l 501 661 l 568 744 q 625 731 586 751 l 539 607 q 533 604 540 604 q 477 617 518 604 l 350 690 l 284 612 q 229 633 260 621 l 312 752 z "},"ú":{"ha":612,"x_min":3,"x_max":601,"o":"m 555 58 q 533 27 555 58 q 383 -16 510 -3 q 171 -11 256 -28 q 44 91 85 5 q 33 486 3 176 q 117 483 92 524 q 107 154 94 237 q 195 58 121 71 q 366 58 269 45 q 485 117 463 71 q 507 291 508 164 q 505 491 506 418 q 586 491 553 532 q 555 58 601 119 m 397 846 q 435 859 418 859 q 479 816 465 859 q 485 797 485 807 q 305 619 417 696 l 274 659 q 397 846 363 760 z "},"ù":{"ha":612,"x_min":3,"x_max":601,"o":"m 555 58 q 533 27 555 58 q 383 -16 510 -3 q 171 -11 256 -28 q 44 91 85 5 q 33 486 3 176 q 117 483 92 524 q 107 154 94 237 q 195 58 121 71 q 366 58 269 45 q 485 117 463 71 q 507 291 508 164 q 505 491 506 418 q 586 491 553 532 q 555 58 601 119 m 227 846 q 350 659 306 802 l 319 619 q 139 797 252 739 q 144 816 139 807 q 189 859 159 859 q 227 846 205 859 z "},"û":{"ha":612,"x_min":3,"x_max":601,"o":"m 555 58 q 533 27 555 58 q 383 -16 510 -3 q 171 -11 256 -28 q 44 91 85 5 q 33 486 3 176 q 117 483 92 524 q 107 154 94 237 q 195 58 121 71 q 366 58 269 45 q 485 117 463 71 q 507 291 508 164 q 505 491 506 418 q 586 491 553 532 q 555 58 601 119 m 224 621 q 204 618 214 618 q 166 633 182 618 l 300 773 q 339 789 321 789 q 370 777 355 789 l 477 638 q 441 614 470 614 q 416 617 431 614 l 336 732 l 224 621 z "},"ü":{"ha":612,"x_min":3,"x_max":601,"o":"m 555 58 q 533 27 555 58 q 383 -16 510 -3 q 171 -11 256 -28 q 44 91 85 5 q 33 486 3 176 q 117 483 92 524 q 107 154 94 237 q 195 58 121 71 q 366 58 269 45 q 485 117 463 71 q 507 291 508 164 q 505 491 506 418 q 586 491 553 532 q 555 58 601 119 m 149 748 q 193 764 168 764 q 214 762 203 764 q 260 707 252 754 q 260 698 260 702 q 205 648 260 659 q 181 645 192 645 q 133 680 141 645 q 130 705 130 693 q 149 748 130 732 m 401 650 q 358 691 366 663 q 384 754 349 720 q 399 765 392 762 q 417 768 408 768 q 463 746 438 768 q 482 720 475 733 q 486 701 486 710 q 471 671 486 685 q 446 652 458 659 q 420 647 433 647 q 401 650 410 647 z "},"†":{"ha":772,"x_min":0,"x_max":0,"o":""},"°":{"ha":555,"x_min":0,"x_max":0,"o":""},"¢":{"ha":772,"x_min":0,"x_max":0,"o":""},"£":{"ha":772,"x_min":0,"x_max":0,"o":""},"§":{"ha":772,"x_min":0,"x_max":0,"o":""},"•":{"ha":486,"x_min":0,"x_max":0,"o":""},"¶":{"ha":746,"x_min":0,"x_max":0,"o":""},"ß":{"ha":843,"x_min":41,"x_max":865,"o":"m 492 433 q 736 401 625 441 q 796 220 865 355 q 494 21 727 86 q 227 -1 346 -20 q 276 60 190 60 q 442 79 353 54 q 691 213 607 123 q 680 340 776 304 q 427 353 583 376 q 386 345 408 349 l 316 326 q 253 359 254 321 q 289 398 252 397 q 463 507 435 444 q 421 600 491 570 q 251 623 351 631 q 123 519 151 614 l 124 427 l 121 355 l 125 12 q 41 -7 93 -39 l 43 519 q 232 696 84 686 q 469 662 379 706 q 566 566 558 618 q 526 460 574 513 q 492 433 513 446 z "},"®":{"ha":1023,"x_min":0,"x_max":0,"o":""},"©":{"ha":1023,"x_min":0,"x_max":0,"o":""},"™":{"ha":1389,"x_min":0,"x_max":0,"o":""},"´":{"ha":541,"x_min":193,"x_max":404,"o":"m 316 846 q 353 859 337 859 q 398 816 383 859 q 404 797 404 807 q 224 619 336 696 l 193 659 q 316 846 282 760 z "},"¨":{"ha":520,"x_min":81,"x_max":437,"o":"m 100 748 q 144 764 119 764 q 165 762 154 764 q 211 707 203 754 q 212 698 212 702 q 157 648 212 659 q 132 645 143 645 q 84 680 92 645 q 81 705 81 693 q 100 748 81 732 m 353 650 q 309 691 317 663 q 335 754 300 720 q 351 765 343 762 q 368 768 359 768 q 414 746 389 768 q 433 720 427 733 q 437 701 437 710 q 422 671 437 685 q 397 652 410 659 q 372 647 384 647 q 353 650 361 647 z "},"≠":{"ha":762,"x_min":0,"x_max":0,"o":""},"Æ":{"ha":1389,"x_min":0,"x_max":0,"o":""},"Ø":{"ha":1080,"x_min":0,"x_max":0,"o":""},"∞":{"ha":990,"x_min":0,"x_max":0,"o":""},"±":{"ha":762,"x_min":0,"x_max":0,"o":""},"≤":{"ha":762,"x_min":0,"x_max":0,"o":""},"≥":{"ha":762,"x_min":0,"x_max":0,"o":""},"¥":{"ha":772,"x_min":0,"x_max":0,"o":""},"µ":{"ha":800,"x_min":0,"x_max":0,"o":""},"∂":{"ha":686,"x_min":0,"x_max":0,"o":""},"∑":{"ha":990,"x_min":0,"x_max":0,"o":""},"∏":{"ha":1143,"x_min":0,"x_max":0,"o":""},"∫":{"ha":380,"x_min":0,"x_max":0,"o":""},"ª":{"ha":514,"x_min":0,"x_max":0,"o":""},"º":{"ha":507,"x_min":0,"x_max":0,"o":""},"Ω":{"ha":1067,"x_min":0,"x_max":0,"o":""},"æ":{"ha":1235,"x_min":0,"x_max":0,"o":""},"ø":{"ha":848,"x_min":0,"x_max":0,"o":""},"¿":{"ha":758,"x_min":31,"x_max":734,"o":"m 585 -4 q 558 -11 585 -4 q 381 -16 532 -18 q 135 52 230 -13 q 36 177 41 116 q 83 288 31 238 q 235 359 135 338 q 402 415 336 380 q 389 506 469 450 q 469 563 411 562 q 528 426 543 494 q 445 332 512 357 q 302 294 378 308 q 175 242 225 279 q 168 147 125 204 q 297 74 212 90 q 475 59 382 58 q 677 141 569 60 q 734 82 726 123 q 676 31 714 51 q 585 -4 638 11 m 440 634 q 409 636 440 634 q 373 675 378 638 q 393 738 369 713 q 474 750 417 763 q 517 684 532 738 q 440 634 503 630 z "},"¡":{"ha":408,"x_min":119,"x_max":283,"o":"m 239 1 q 123 8 184 -68 q 156 566 133 103 q 239 553 202 608 q 239 1 269 94 m 220 652 q 188 642 220 652 q 138 697 157 633 q 178 778 119 761 q 260 732 237 794 q 220 652 283 671 z "},"¬":{"ha":811,"x_min":0,"x_max":0,"o":""},"√":{"ha":762,"x_min":0,"x_max":0,"o":""},"ƒ":{"ha":772,"x_min":0,"x_max":0,"o":""},"≈":{"ha":762,"x_min":0,"x_max":0,"o":""},"∆":{"ha":850,"x_min":0,"x_max":0,"o":""},"«":{"ha":772,"x_min":0,"x_max":0,"o":""},"»":{"ha":772,"x_min":0,"x_max":0,"o":""},"…":{"ha":1389,"x_min":0,"x_max":0,"o":""},"À":{"ha":870,"x_min":-55,"x_max":924,"o":"m 368 741 q 472 720 410 771 l 924 37 q 826 -1 908 -12 l 720 153 l 108 107 l 36 -21 q -55 28 -42 -35 l 368 741 m 409 640 l 149 198 l 686 231 l 409 640 m 323 1105 q 447 918 403 1062 l 416 879 q 236 1057 349 999 q 241 1076 236 1067 q 286 1118 256 1118 q 323 1105 302 1118 z "},"Ã":{"ha":870,"x_min":-55,"x_max":924,"o":"m 368 741 q 472 720 410 771 l 924 37 q 826 -1 908 -12 l 720 153 l 108 107 l 36 -21 q -55 28 -42 -35 l 368 741 m 409 640 l 149 198 l 686 231 l 409 640 m 299 1029 q 306 1029 302 1029 q 352 1011 324 1029 l 488 938 l 555 1021 q 612 1008 573 1028 l 526 884 q 520 881 527 881 q 465 894 505 881 l 337 967 l 271 888 q 216 910 248 897 l 299 1029 z "},"Õ":{"ha":1064,"x_min":9,"x_max":1028,"o":"m 434 745 q 535 761 434 745 q 744 735 637 778 q 940 596 851 692 q 1008 359 1028 500 q 883 127 988 218 q 632 -2 779 36 q 332 -4 486 -41 q 101 114 178 32 q 16 324 23 195 q 120 582 9 452 q 434 745 231 712 m 454 670 q 372 656 454 670 q 197 538 290 642 q 105 345 105 435 q 165 178 105 254 q 357 70 226 102 q 611 73 489 37 q 826 182 734 109 q 926 359 918 256 q 866 545 934 461 q 708 663 798 629 q 454 670 619 698 m 408 1031 q 415 1032 411 1032 q 461 1014 433 1032 l 597 941 l 665 1023 q 722 1010 682 1031 l 635 886 q 629 884 636 884 q 574 897 614 884 l 446 970 l 380 891 q 325 913 357 900 l 408 1031 z "},"Œ":{"ha":1389,"x_min":0,"x_max":0,"o":""},"œ":{"ha":1311,"x_min":0,"x_max":0,"o":""},"–":{"ha":772,"x_min":0,"x_max":0,"o":""},"—":{"ha":1389,"x_min":0,"x_max":0,"o":""},"“":{"ha":541,"x_min":134,"x_max":399,"o":"m 281 754 q 397 784 309 824 q 366 494 399 631 l 288 526 q 281 754 288 648 m 134 754 q 251 784 162 824 q 219 494 252 631 l 142 526 q 134 754 140 648 z "},"”":{"ha":541,"x_min":134,"x_max":399,"o":"m 281 754 q 397 784 309 824 q 366 494 399 631 l 288 526 q 281 754 288 648 m 134 754 q 251 784 162 824 q 219 494 252 631 l 142 526 q 134 754 140 648 z "},"‘":{"ha":265,"x_min":61,"x_max":202,"o":"m 82 754 q 202 784 119 824 q 134 494 184 631 l 61 526 q 82 754 75 648 z "},"’":{"ha":265,"x_min":61,"x_max":202,"o":"m 82 754 q 202 784 119 824 q 134 494 184 631 l 61 526 q 82 754 75 648 z "},"÷":{"ha":762,"x_min":0,"x_max":0,"o":""},"◊":{"ha":686,"x_min":0,"x_max":0,"o":""},"ÿ":{"ha":696,"x_min":-61,"x_max":736,"o":"m 552 469 q 627 484 587 507 q 607 -197 736 -118 q 342 -273 478 -275 q -13 -205 207 -270 q 9 -132 -61 -153 q 347 -196 243 -196 q 541 -140 450 -195 q 587 163 631 -85 q 323 -3 465 18 q 108 14 181 -24 q 22 155 35 52 q 80 487 9 258 q 171 483 142 509 q 146 91 58 135 q 325 69 235 47 q 579 256 414 91 l 552 469 m 191 753 q 236 770 210 770 q 256 768 245 770 q 302 713 295 760 q 303 703 303 707 q 248 653 303 665 q 224 650 235 650 q 176 686 184 650 q 172 710 172 699 q 191 753 172 738 m 444 655 q 400 697 409 668 q 427 760 392 726 q 442 770 435 767 q 460 774 451 774 q 505 751 481 774 q 525 726 518 739 q 529 707 529 715 q 514 676 529 690 q 488 658 501 664 q 463 652 475 652 q 444 655 453 652 z "},"Ÿ":{"ha":823,"x_min":-78,"x_max":923,"o":"m 7 772 l 364 476 l 841 792 q 903 729 923 789 l 420 395 l 426 -2 q 320 -3 373 -53 l 321 389 l -71 717 q 7 772 -78 776 m 229 1022 q 273 1038 248 1038 q 294 1036 283 1038 q 340 981 332 1028 q 340 972 340 976 q 286 922 340 933 q 261 919 272 919 q 213 954 221 919 q 210 979 210 967 q 229 1022 210 1006 m 481 924 q 438 965 446 937 q 464 1028 429 994 q 479 1039 472 1036 q 497 1042 488 1042 q 543 1020 518 1042 q 562 994 555 1007 q 566 975 566 984 q 551 945 566 959 q 526 926 538 932 q 500 921 513 921 q 481 924 490 921 z "},"⁄":{"ha":232,"x_min":0,"x_max":0,"o":""},"€":{"ha":1086,"x_min":35,"x_max":1059,"o":"m 135 440 q 139 449 137 445 q 321 649 203 585 q 546 733 440 713 q 676 745 611 745 q 754 741 715 745 q 1048 658 857 729 q 1058 628 1058 642 q 1003 575 1058 595 q 863 633 918 616 q 738 663 808 650 q 592 663 669 677 q 431 615 516 650 q 294 530 347 581 q 232 445 257 495 l 785 470 q 778 391 824 432 l 203 365 q 198 293 194 325 l 785 320 q 778 241 824 282 l 229 216 q 267 169 244 191 q 371 103 311 125 q 524 65 432 82 q 720 67 616 48 q 991 187 823 87 q 1059 137 1059 178 q 964 62 1050 115 q 745 -13 879 9 q 618 -22 683 -22 q 467 -9 544 -22 q 244 59 321 15 q 121 208 167 103 q 119 212 120 210 l 47 208 q 36 242 36 225 q 59 287 36 265 l 102 289 q 109 361 100 323 l 47 358 q 35 392 35 375 q 58 437 35 415 l 135 440 z "},"‹":{"ha":463,"x_min":0,"x_max":0,"o":""},"›":{"ha":463,"x_min":0,"x_max":0,"o":""},"":{"ha":694,"x_min":0,"x_max":0,"o":""},"":{"ha":694,"x_min":0,"x_max":0,"o":""},"‡":{"ha":772,"x_min":0,"x_max":0,"o":""},"·":{"ha":386,"x_min":0,"x_max":0,"o":""},"‚":{"ha":309,"x_min":0,"x_max":0,"o":""},"„":{"ha":463,"x_min":0,"x_max":0,"o":""},"‰":{"ha":1389,"x_min":0,"x_max":0,"o":""},"Â":{"ha":870,"x_min":-55,"x_max":924,"o":"m 368 741 q 472 720 410 771 l 924 37 q 826 -1 908 -12 l 720 153 l 108 107 l 36 -21 q -55 28 -42 -35 l 368 741 m 409 640 l 149 198 l 686 231 l 409 640 m 292 890 q 272 887 281 887 q 234 901 250 887 l 368 1042 q 407 1058 389 1058 q 437 1046 423 1058 l 545 907 q 509 882 538 882 q 484 886 498 882 l 404 1001 l 292 890 z "},"Ê":{"ha":840,"x_min":-30,"x_max":840,"o":"m 745 766 q 751 691 800 728 l 133 671 l 132 546 l 747 571 q 750 490 802 534 l 132 466 l 132 76 l 786 93 q 792 8 840 62 l 127 -18 q 35 26 43 -21 l 37 663 q 47 755 -30 714 l 745 766 m 316 892 q 296 890 305 890 q 258 904 274 890 l 392 1044 q 431 1061 412 1061 q 461 1048 447 1061 l 568 909 q 533 885 562 885 q 508 888 522 885 l 428 1004 l 316 892 z "},"Á":{"ha":870,"x_min":-55,"x_max":924,"o":"m 368 741 q 472 720 410 771 l 924 37 q 826 -1 908 -12 l 720 153 l 108 107 l 36 -21 q -55 28 -42 -35 l 368 741 m 409 640 l 149 198 l 686 231 l 409 640 m 500 1108 q 537 1121 521 1121 q 582 1078 567 1121 q 587 1059 587 1069 q 408 882 519 959 l 376 921 q 500 1108 466 1022 z "},"Ë":{"ha":840,"x_min":-30,"x_max":840,"o":"m 745 766 q 751 691 800 728 l 133 671 l 132 546 l 747 571 q 750 490 802 534 l 132 466 l 132 76 l 786 93 q 792 8 840 62 l 127 -18 q 35 26 43 -21 l 37 663 q 47 755 -30 714 l 745 766 m 254 1036 q 298 1053 273 1053 q 319 1050 308 1053 q 365 996 357 1042 q 366 986 366 990 q 311 936 366 947 q 286 933 297 933 q 238 968 246 933 q 235 993 235 981 q 254 1036 235 1021 m 507 938 q 463 980 471 951 q 489 1042 454 1008 q 505 1053 497 1050 q 522 1057 513 1057 q 568 1034 543 1057 q 587 1008 581 1021 q 591 989 591 998 q 576 959 591 973 q 551 941 564 947 q 526 935 538 935 q 507 938 515 935 z "},"È":{"ha":840,"x_min":-30,"x_max":840,"o":"m 745 766 q 751 691 800 728 l 133 671 l 132 546 l 747 571 q 750 490 802 534 l 132 466 l 132 76 l 786 93 q 792 8 840 62 l 127 -18 q 35 26 43 -21 l 37 663 q 47 755 -30 714 l 745 766 m 335 1111 q 458 924 414 1067 l 427 884 q 248 1062 361 1004 q 253 1081 248 1072 q 298 1124 268 1124 q 335 1111 314 1124 z "},"Í":{"ha":338,"x_min":123,"x_max":353,"o":"m 218 739 l 218 -12 q 125 -7 170 -63 l 123 728 q 218 739 160 779 m 266 1103 q 303 1116 287 1116 q 348 1073 333 1116 q 353 1054 353 1064 q 174 876 286 954 l 142 916 q 266 1103 232 1017 z "},"Î":{"ha":338,"x_min":22,"x_max":333,"o":"m 218 739 l 218 -12 q 125 -7 170 -63 l 123 728 q 218 739 160 779 m 81 890 q 60 887 70 887 q 22 901 39 887 l 157 1042 q 195 1058 177 1058 q 226 1046 212 1058 l 333 907 q 298 882 326 882 q 273 886 287 882 l 193 1001 l 81 890 z "},"Ï":{"ha":338,"x_min":-9,"x_max":347,"o":"m 218 739 l 218 -12 q 125 -7 170 -63 l 123 728 q 218 739 160 779 m 9 1025 q 54 1041 28 1041 q 75 1039 64 1041 q 121 984 113 1031 q 121 975 121 979 q 66 924 121 936 q 42 922 53 922 q -6 957 2 922 q -9 981 -9 970 q 9 1025 -9 1009 m 262 926 q 219 968 227 939 q 245 1031 210 997 q 260 1042 253 1038 q 278 1045 269 1045 q 323 1023 299 1045 q 343 997 336 1010 q 347 978 347 987 q 332 947 347 962 q 307 929 319 935 q 281 924 294 924 q 262 926 271 924 z "},"Ì":{"ha":338,"x_min":-6,"x_max":218,"o":"m 218 739 l 218 -12 q 125 -7 170 -63 l 123 728 q 218 739 160 779 m 81 1114 q 205 926 161 1070 l 174 887 q -6 1065 107 1007 q -1 1084 -6 1075 q 44 1126 14 1126 q 81 1114 60 1126 z "},"Ó":{"ha":1064,"x_min":9,"x_max":1028,"o":"m 434 745 q 535 761 434 745 q 744 735 637 778 q 940 596 851 692 q 1008 359 1028 500 q 883 127 988 218 q 632 -2 779 36 q 332 -4 486 -41 q 101 114 178 32 q 16 324 23 195 q 120 582 9 452 q 434 745 231 712 m 454 670 q 372 656 454 670 q 197 538 290 642 q 105 345 105 435 q 165 178 105 254 q 357 70 226 102 q 611 73 489 37 q 826 182 734 109 q 926 359 918 256 q 866 545 934 461 q 708 663 798 629 q 454 670 619 698 m 604 1114 q 642 1126 625 1126 q 686 1084 671 1126 q 692 1065 692 1075 q 512 887 624 964 l 481 926 q 604 1114 570 1027 z "},"Ô":{"ha":1064,"x_min":9,"x_max":1028,"o":"m 434 745 q 535 761 434 745 q 744 735 637 778 q 940 596 851 692 q 1008 359 1028 500 q 883 127 988 218 q 632 -2 779 36 q 332 -4 486 -41 q 101 114 178 32 q 16 324 23 195 q 120 582 9 452 q 434 745 231 712 m 454 670 q 372 656 454 670 q 197 538 290 642 q 105 345 105 435 q 165 178 105 254 q 357 70 226 102 q 611 73 489 37 q 826 182 734 109 q 926 359 918 256 q 866 545 934 461 q 708 663 798 629 q 454 670 619 698 m 437 890 q 417 887 427 887 q 379 901 395 887 l 513 1042 q 552 1058 534 1058 q 583 1046 568 1058 l 690 907 q 654 882 683 882 q 629 886 644 882 l 549 1001 l 437 890 z "},"Ò":{"ha":1064,"x_min":9,"x_max":1028,"o":"m 434 745 q 535 761 434 745 q 744 735 637 778 q 940 596 851 692 q 1008 359 1028 500 q 883 127 988 218 q 632 -2 779 36 q 332 -4 486 -41 q 101 114 178 32 q 16 324 23 195 q 120 582 9 452 q 434 745 231 712 m 454 670 q 372 656 454 670 q 197 538 290 642 q 105 345 105 435 q 165 178 105 254 q 357 70 226 102 q 611 73 489 37 q 826 182 734 109 q 926 359 918 256 q 866 545 934 461 q 708 663 798 629 q 454 670 619 698 m 443 1111 q 566 924 522 1067 l 535 884 q 355 1062 469 1004 q 361 1081 355 1072 q 406 1124 376 1124 q 443 1111 422 1124 z "},"Ú":{"ha":964,"x_min":7,"x_max":939,"o":"m 26 737 q 126 733 68 787 q 136 136 107 195 q 225 47 164 76 q 424 35 287 19 q 652 83 560 50 q 781 161 744 117 q 829 268 818 205 q 834 766 840 330 q 922 757 878 798 q 926 270 939 361 q 854 104 913 178 q 689 -1 796 30 q 493 -43 582 -33 q 326 -54 404 -54 q 166 -29 249 -54 q 46 74 84 -3 q 26 737 7 151 m 544 1100 q 581 1113 565 1113 q 626 1070 611 1113 q 631 1051 631 1061 q 452 873 564 951 l 420 913 q 544 1100 510 1014 z "},"Û":{"ha":964,"x_min":7,"x_max":939,"o":"m 26 737 q 126 733 68 787 q 136 136 107 195 q 225 47 164 76 q 424 35 287 19 q 652 83 560 50 q 781 161 744 117 q 829 268 818 205 q 834 766 840 330 q 922 757 878 798 q 926 270 939 361 q 854 104 913 178 q 689 -1 796 30 q 493 -43 582 -33 q 326 -54 404 -54 q 166 -29 249 -54 q 46 74 84 -3 q 26 737 7 151 m 382 895 q 361 892 371 892 q 323 907 340 892 l 458 1047 q 496 1063 478 1063 q 527 1051 513 1063 l 634 912 q 599 888 627 888 q 574 891 588 888 l 494 1006 l 382 895 z "},"Ù":{"ha":964,"x_min":7,"x_max":939,"o":"m 26 737 q 126 733 68 787 q 136 136 107 195 q 225 47 164 76 q 424 35 287 19 q 652 83 560 50 q 781 161 744 117 q 829 268 818 205 q 834 766 840 330 q 922 757 878 798 q 926 270 939 361 q 854 104 913 178 q 689 -1 796 30 q 493 -43 582 -33 q 326 -54 404 -54 q 166 -29 249 -54 q 46 74 84 -3 q 26 737 7 151 m 391 1105 q 514 918 470 1061 l 483 878 q 303 1056 416 998 q 309 1075 303 1066 q 353 1118 323 1118 q 391 1105 370 1118 z "},"ı":{"ha":197,"x_min":45,"x_max":153,"o":"m 69 483 q 152 477 116 513 q 153 -9 117 237 q 77 -12 111 -37 q 69 483 45 230 z "},"ˆ":{"ha":711,"x_min":188,"x_max":498,"o":"m 246 621 q 226 618 235 618 q 188 633 204 618 l 322 773 q 361 789 342 789 q 391 777 377 789 l 498 638 q 463 614 492 614 q 438 617 452 614 l 358 732 l 246 621 z "},"˜":{"ha":677,"x_min":143,"x_max":540,"o":"m 227 752 q 233 753 229 753 q 279 734 252 753 l 416 661 l 483 744 q 540 731 500 751 l 454 607 q 448 604 454 604 q 392 617 433 604 l 264 690 l 199 612 q 143 633 175 621 l 227 752 z "},"ˉ":{"ha":463,"x_min":0,"x_max":0,"o":""},"˘":{"ha":463,"x_min":0,"x_max":0,"o":""},"˙":{"ha":463,"x_min":0,"x_max":0,"o":""},"˚":{"ha":463,"x_min":0,"x_max":0,"o":""},"¸":{"ha":463,"x_min":126,"x_max":376,"o":"m 262 -35 q 299 -47 279 -42 q 330 -59 317 -52 q 361 -81 349 -67 q 376 -120 376 -98 l 376 -124 q 344 -173 375 -148 q 262 -199 313 -197 l 225 -199 q 176 -194 190 -198 q 145 -181 158 -189 q 126 -161 132 -173 q 144 -138 129 -145 q 154 -132 148 -134 q 162 -138 158 -136 q 165 -138 163 -138 q 193 -157 179 -150 q 220 -164 207 -163 q 279 -159 251 -165 q 294 -153 288 -157 q 313 -135 306 -146 q 310 -99 327 -113 q 269 -78 294 -84 q 221 -63 243 -73 q 194 -27 199 -54 q 214 26 189 0 l 218 26 q 222 32 220 29 q 239 26 232 31 q 260 4 254 22 q 256 -31 233 -18 q 262 -35 259 -33 z "},"˝":{"ha":463,"x_min":0,"x_max":0,"o":""},"˛":{"ha":463,"x_min":0,"x_max":0,"o":""},"ˇ":{"ha":463,"x_min":0,"x_max":0,"o":""},"Ł":{"ha":772,"x_min":0,"x_max":0,"o":""},"ł":{"ha":309,"x_min":0,"x_max":0,"o":""},"Š":{"ha":926,"x_min":0,"x_max":0,"o":""},"š":{"ha":694,"x_min":0,"x_max":0,"o":""},"Ž":{"ha":848,"x_min":0,"x_max":0,"o":""},"ž":{"ha":694,"x_min":0,"x_max":0,"o":""},"¦":{"ha":361,"x_min":0,"x_max":0,"o":""},"Ð":{"ha":1003,"x_min":0,"x_max":0,"o":""},"ð":{"ha":772,"x_min":0,"x_max":0,"o":""},"Ý":{"ha":926,"x_min":0,"x_max":0,"o":""},"ý":{"ha":694,"x_min":0,"x_max":0,"o":""},"Þ":{"ha":926,"x_min":0,"x_max":0,"o":""},"þ":{"ha":772,"x_min":0,"x_max":0,"o":""},"−":{"ha":811,"x_min":0,"x_max":0,"o":""},"×":{"ha":811,"x_min":0,"x_max":0,"o":""},"¹":{"ha":463,"x_min":0,"x_max":0,"o":""},"²":{"ha":463,"x_min":0,"x_max":0,"o":""},"³":{"ha":463,"x_min":0,"x_max":0,"o":""},"½":{"ha":1158,"x_min":0,"x_max":0,"o":""},"¼":{"ha":1158,"x_min":0,"x_max":0,"o":""},"¾":{"ha":1158,"x_min":0,"x_max":0,"o":""}}}
